<svg width="1000" height="1000" viewBox="0 0 1000 1000" fill="none" xmlns="http://www.w3.org/2000/svg">
<rect width="1000" height="1000" rx="140" fill="#DD4C1E"/>
<path d="M378.04 866.59H326.99L474.641 464.478H524.905L672.555 866.59H621.506L501.343 528.093H498.202L378.04 866.59ZM396.889 709.515H602.657V752.711H396.889V709.515Z" fill="white"/>
<path fill-rule="evenodd" clip-rule="evenodd" d="M140.104 358.429L500 147.043L859.899 358.429V865.978H747.988L723.3 823.216H724.477V794.716H706.846L699.849 782.598L688.617 751.953H724.477V723.454H678.171L662.496 680.691H724.477V652.191H652.05L636.376 609.43H724.477V580.93H625.93L610.256 538.167H724.477V509.666H599.809L584.135 466.905H724.477V438.405H501.129L500.451 437.23L499.772 438.405H275.523V466.905H417.717L402.48 509.666H275.523V538.167H392.324L377.087 580.93H275.523V609.43H366.932L351.695 652.191H275.523V680.691H341.54L326.302 723.454H275.523V751.953H316.147L311.96 763.706L294.056 794.716H275.523V823.216H277.602L252.913 865.978H140.104V358.429ZM232.762 395.645H767.24V823.214H817.134V382.905L500 196.636L182.865 382.905V823.213H232.762V395.645Z" fill="white"/>
</svg>
